<?xml version="1.0" encoding="UTF-8"?>
<!DOCTYPE svg PUBLIC "-//W3C//DTD SVG 1.1//EN" "http://www.w3.org/Graphics/SVG/1.1/DTD/svg11.dtd">
<svg version="1.2" width="50.8mm" height="50.8mm" viewBox="0 0 5080 5080" preserveAspectRatio="xMidYMid" fill-rule="evenodd" stroke-width="28.222" stroke-linejoin="round" xmlns="http://www.w3.org/2000/svg" xmlns:ooo="http://xml.openoffice.org/svg/export" xmlns:xlink="http://www.w3.org/1999/xlink" xmlns:presentation="http://sun.com/xmlns/staroffice/presentation" xmlns:smil="http://www.w3.org/2001/SMIL20/" xmlns:anim="urn:oasis:names:tc:opendocument:xmlns:animation:1.0" xmlns:svg="urn:oasis:names:tc:opendocument:xmlns:svg-compatible:1.0" xml:space="preserve">
 <defs class="ClipPathGroup">
  <clipPath id="presentation_clip_path" clipPathUnits="userSpaceOnUse">
   <rect x="0" y="0" width="5080" height="5080"/>
  </clipPath>
  <clipPath id="presentation_clip_path_shrink" clipPathUnits="userSpaceOnUse">
   <rect x="5" y="5" width="5070" height="5070"/>
  </clipPath>
 </defs>
 <defs class="TextShapeIndex">
  <g ooo:slide="id1" ooo:id-list="id3 id4"/>
 </defs>
 <defs class="EmbeddedBulletChars">
  <g id="bullet-char-template-57356" transform="scale(0.00048828125,-0.00048828125)">
   <path d="M 580,1141 L 1163,571 580,0 -4,571 580,1141 Z"/>
  </g>
  <g id="bullet-char-template-57354" transform="scale(0.00048828125,-0.00048828125)">
   <path d="M 8,1128 L 1137,1128 1137,0 8,0 8,1128 Z"/>
  </g>
  <g id="bullet-char-template-10146" transform="scale(0.00048828125,-0.00048828125)">
   <path d="M 174,0 L 602,739 174,1481 1456,739 174,0 Z M 1358,739 L 309,1346 659,739 1358,739 Z"/>
  </g>
  <g id="bullet-char-template-10132" transform="scale(0.00048828125,-0.00048828125)">
   <path d="M 2015,739 L 1276,0 717,0 1260,543 174,543 174,936 1260,936 717,1481 1274,1481 2015,739 Z"/>
  </g>
  <g id="bullet-char-template-10007" transform="scale(0.00048828125,-0.00048828125)">
   <path d="M 0,-2 C -7,14 -16,27 -25,37 L 356,567 C 262,823 215,952 215,954 215,979 228,992 255,992 264,992 276,990 289,987 310,991 331,999 354,1012 L 381,999 492,748 772,1049 836,1024 860,1049 C 881,1039 901,1025 922,1006 886,937 835,863 770,784 769,783 710,716 594,584 L 774,223 C 774,196 753,168 711,139 L 727,119 C 717,90 699,76 672,76 641,76 570,178 457,381 L 164,-76 C 142,-110 111,-127 72,-127 30,-127 9,-110 8,-76 1,-67 -2,-52 -2,-32 -2,-23 -1,-13 0,-2 Z"/>
  </g>
  <g id="bullet-char-template-10004" transform="scale(0.00048828125,-0.00048828125)">
   <path d="M 285,-33 C 182,-33 111,30 74,156 52,228 41,333 41,471 41,549 55,616 82,672 116,743 169,778 240,778 293,778 328,747 346,684 L 369,508 C 377,444 397,411 428,410 L 1163,1116 C 1174,1127 1196,1133 1229,1133 1271,1133 1292,1118 1292,1087 L 1292,965 C 1292,929 1282,901 1262,881 L 442,47 C 390,-6 338,-33 285,-33 Z"/>
  </g>
  <g id="bullet-char-template-9679" transform="scale(0.00048828125,-0.00048828125)">
   <path d="M 813,0 C 632,0 489,54 383,161 276,268 223,411 223,592 223,773 276,916 383,1023 489,1130 632,1184 813,1184 992,1184 1136,1130 1245,1023 1353,916 1407,772 1407,592 1407,412 1353,268 1245,161 1136,54 992,0 813,0 Z"/>
  </g>
  <g id="bullet-char-template-8226" transform="scale(0.00048828125,-0.00048828125)">
   <path d="M 346,457 C 273,457 209,483 155,535 101,586 74,649 74,723 74,796 101,859 155,911 209,963 273,989 346,989 419,989 480,963 531,910 582,859 608,796 608,723 608,648 583,586 532,535 482,483 420,457 346,457 Z"/>
  </g>
  <g id="bullet-char-template-8211" transform="scale(0.00048828125,-0.00048828125)">
   <path d="M -4,459 L 1135,459 1135,606 -4,606 -4,459 Z"/>
  </g>
  <g id="bullet-char-template-61548" transform="scale(0.00048828125,-0.00048828125)">
   <path d="M 173,740 C 173,903 231,1043 346,1159 462,1274 601,1332 765,1332 928,1332 1067,1274 1183,1159 1299,1043 1357,903 1357,740 1357,577 1299,437 1183,322 1067,206 928,148 765,148 601,148 462,206 346,322 231,437 173,577 173,740 Z"/>
  </g>
 </defs>
 <g>
  <g id="id2" class="Master_Slide">
   <g id="bg-id2" class="Background"/>
   <g id="bo-id2" class="BackgroundObjects"/>
  </g>
 </g>
 <g class="SlideGroup">
  <g>
   <g id="container-id1">
    <g id="id1" class="Slide" clip-path="url(#presentation_clip_path)">
     <g class="Page">
      <g class="com.sun.star.drawing.CustomShape">
       <g id="id3">
        <rect class="BoundingBox" stroke="none" fill="none" x="0" y="0" width="5081" height="5081"/>
        <path fill="rgb(238,238,238)" fill-opacity="0.502" stroke="none" d="M 2540,5080 L 0,5080 0,0 5080,0 5080,5080 2540,5080 Z"/>
       </g>
      </g>
      <g class="Graphic">
       <g id="id4">
        <rect class="BoundingBox" stroke="none" fill="none" x="635" y="635" width="3811" height="3811"/>
        <defs>
         <clipPath id="clip_path_1" clipPathUnits="userSpaceOnUse">
          <path d="M 635,635 L 4445,635 4445,4445 635,4445 635,635 Z"/>
         </clipPath>
        </defs>
        <g clip-path="url(#clip_path_1)">
         <path fill="rgb(0,0,0)" stroke="none" d="M 2497,4255 C 2951,4359 3937,4524 3977,2888 3974,2875 3899,2831 3841,2770 3775,3809 3468,4345 2309,4135 2309,4135 2481,4252 2497,4255 L 2497,4255 Z M 3632,2844 C 3634,2845 3849,2411 3988,2339 4050,2426 4304,2857 4311,2866 4315,2872 4453,2975 4444,2964 4407,2916 4074,2351 4060,2337 4053,2330 3914,2235 3889,2211 3819,2211 3495,2735 3494,2737 3494,2737 3629,2839 3632,2844 L 3632,2844 Z"/>
         <path fill="rgb(0,0,0)" stroke="none" d="M 1108,1768 C 780,2123 115,2925 1364,3853 1375,3857 1451,3813 1530,3794 758,3168 510,2598 1304,1664 1304,1664 1119,1756 1108,1768 L 1108,1768 Z M 1586,3565 C 1584,3565 1804,3996 1785,4161 1684,4170 1211,4166 1200,4167 1193,4167 1038,4236 1051,4234 1108,4227 1729,4233 1747,4228 1757,4226 1906,4151 1938,4142 1976,4079 1746,3499 1745,3498 1744,3498 1592,3564 1586,3565 L 1586,3565 Z"/>
         <path fill="rgb(0,0,0)" stroke="none" d="M 3882,1734 C 3723,1264 3331,273 2024,1103 2015,1113 2020,1206 2003,1291 2855,800 3439,798 3887,1969 3887,1969 3888,1750 3882,1734 L 3882,1734 Z M 2171,1443 C 2172,1440 1717,1473 1587,1385 1622,1282 1826,821 1829,810 1832,803 1840,622 1836,636 1818,695 1550,1299 1547,1319 1545,1329 1544,1508 1538,1543 1576,1606 2159,1626 2161,1625 2161,1625 2170,1449 2171,1443 L 2171,1443 Z"/>
         <path fill="none" stroke="rgb(0,0,0)" stroke-width="48" stroke-linejoin="miter" d="M 2600,2151 C 2600,2202 2578,2252 2534,2296 2491,2340 2428,2377 2353,2402 2277,2428 2192,2441 2105,2441 2018,2441 1932,2428 1857,2402 1781,2377 1719,2340 1675,2296 1632,2252 1609,2202 1609,2151 1609,2100 1632,2050 1675,2006 1719,1962 1781,1925 1857,1900 1932,1874 2018,1861 2105,1861 2192,1861 2277,1874 2353,1900 2428,1925 2491,1962 2534,2006 2578,2050 2600,2100 2600,2151 Z"/>
         <path fill="none" stroke="rgb(0,0,0)" stroke-width="48" stroke-linejoin="miter" d="M 2600,2724 L 2600,2731 C 2600,2781 2577,2831 2534,2875 2490,2919 2428,2956 2353,2981 2277,3007 2192,3020 2105,3020 2018,3020 1932,3007 1857,2981 1781,2956 1719,2919 1675,2875 1632,2831 1609,2781 1609,2731 L 1609,2727"/>
         <path fill="none" stroke="rgb(0,0,0)" stroke-width="48" stroke-linejoin="miter" d="M 2600,2441 L 2600,2448 C 2600,2498 2577,2548 2534,2592 2490,2636 2428,2673 2353,2698 2277,2724 2192,2737 2105,2737 2018,2737 1932,2724 1857,2698 1781,2673 1719,2636 1675,2592 1632,2548 1609,2498 1609,2448 L 1609,2444"/>
         <path fill="none" stroke="rgb(0,0,0)" stroke-width="48" stroke-linejoin="miter" d="M 1609,2730 L 1609,2151"/>
         <path fill="none" stroke="rgb(0,0,0)" stroke-width="48" stroke-linejoin="miter" d="M 2600,2730 L 2600,2151"/>
         <path fill="none" stroke="rgb(0,0,0)" stroke-width="48" stroke-linejoin="miter" d="M 2309,3800 L 3415,3800 3415,2833 2999,2833 2722,2511 2309,2511 2309,3800 2309,3800 Z"/>
         <path fill="none" stroke="rgb(0,0,0)" stroke-width="48" stroke-linejoin="miter" d="M 2999,2833 L 2309,2833"/>
         <path fill="rgb(255,255,255)" stroke="none" d="M 2864,3777 L 2334,3777 2334,2854 3393,2854 3393,3777 2864,3777 2864,3777 Z"/>
         <path fill="none" stroke="rgb(0,0,0)" stroke-width="8" stroke-linejoin="round" d="M 2864,3777 L 2334,3777 2334,2854 3393,2854 3393,3777 2864,3777 2864,3777 Z"/>
         <path fill="rgb(255,255,255)" stroke="none" d="M 2519,2808 L 2331,2808 2331,2537 2706,2537 2706,2808 2519,2808 2519,2808 Z"/>
         <path fill="rgb(0,0,0)" stroke="none" d="M 3276,3377 L 3276,3377 C 3276,3378 3276,3379 3276,3380 3277,3381 3277,3381 3278,3382 3279,3382 3280,3383 3281,3383 L 3303,3383 3303,3383 C 3304,3383 3305,3382 3306,3382 3307,3381 3307,3381 3308,3380 3308,3379 3309,3378 3309,3377 L 3309,2950 3309,2950 C 3309,2949 3308,2948 3308,2947 3307,2946 3307,2945 3306,2945 3305,2944 3304,2944 3303,2944 L 3281,2944 3281,2944 3281,2944 C 3280,2944 3279,2944 3278,2945 3277,2945 3277,2946 3276,2947 3276,2948 3276,2949 3276,2950 L 3276,3377 3276,3377 Z"/>
         <path fill="none" stroke="rgb(0,0,0)" stroke-width="8" stroke-linejoin="round" d="M 3276,3377 L 3276,3377 C 3276,3378 3276,3379 3276,3380 3277,3381 3277,3381 3278,3382 3279,3382 3280,3383 3281,3383 L 3303,3383 3303,3383 C 3304,3383 3305,3382 3306,3382 3307,3381 3307,3381 3308,3380 3308,3379 3309,3378 3309,3377 L 3309,2950 3309,2950 C 3309,2949 3308,2948 3308,2947 3307,2946 3307,2945 3306,2945 3305,2944 3304,2944 3303,2944 L 3281,2944 3281,2944 3281,2944 C 3280,2944 3279,2944 3278,2945 3277,2945 3277,2946 3276,2947 3276,2948 3276,2949 3276,2950 L 3276,3377 Z"/>
         <path fill="rgb(0,0,0)" stroke="none" d="M 3187,3695 L 3187,3695 C 3187,3696 3188,3697 3188,3698 3189,3699 3189,3700 3190,3700 3191,3701 3192,3701 3193,3701 L 3215,3701 3215,3701 C 3216,3701 3217,3701 3218,3700 3219,3700 3219,3699 3220,3698 3220,3697 3220,3696 3220,3695 L 3220,3268 3220,3268 C 3220,3267 3220,3266 3220,3265 3219,3264 3219,3264 3218,3263 3217,3263 3216,3262 3215,3262 L 3193,3262 3193,3262 3193,3262 C 3192,3262 3191,3263 3190,3263 3189,3264 3189,3264 3188,3265 3188,3266 3187,3267 3187,3268 L 3187,3695 3187,3695 Z"/>
         <path fill="none" stroke="rgb(0,0,0)" stroke-width="8" stroke-linejoin="round" d="M 3187,3695 L 3187,3695 C 3187,3696 3188,3697 3188,3698 3189,3699 3189,3700 3190,3700 3191,3701 3192,3701 3193,3701 L 3215,3701 3215,3701 C 3216,3701 3217,3701 3218,3700 3219,3700 3219,3699 3220,3698 3220,3697 3220,3696 3220,3695 L 3220,3268 3220,3268 C 3220,3267 3220,3266 3220,3265 3219,3264 3219,3264 3218,3263 3217,3263 3216,3262 3215,3262 L 3193,3262 3193,3262 3193,3262 C 3192,3262 3191,3263 3190,3263 3189,3264 3189,3264 3188,3265 3188,3266 3187,3267 3187,3268 L 3187,3695 Z"/>
        </g>
       </g>
      </g>
     </g>
    </g>
   </g>
  </g>
 </g>
</svg>