<?xml version="1.0" encoding="UTF-8"?>
<!DOCTYPE svg PUBLIC "-//W3C//DTD SVG 1.1//EN" "http://www.w3.org/Graphics/SVG/1.1/DTD/svg11.dtd">
<svg version="1.2" width="50.8mm" height="50.8mm" viewBox="0 0 5080 5080" preserveAspectRatio="xMidYMid" fill-rule="evenodd" stroke-width="28.222" stroke-linejoin="round" xmlns="http://www.w3.org/2000/svg" xmlns:ooo="http://xml.openoffice.org/svg/export" xmlns:xlink="http://www.w3.org/1999/xlink" xmlns:presentation="http://sun.com/xmlns/staroffice/presentation" xmlns:smil="http://www.w3.org/2001/SMIL20/" xmlns:anim="urn:oasis:names:tc:opendocument:xmlns:animation:1.0" xmlns:svg="urn:oasis:names:tc:opendocument:xmlns:svg-compatible:1.0" xml:space="preserve">
 <defs class="ClipPathGroup">
  <clipPath id="presentation_clip_path" clipPathUnits="userSpaceOnUse">
   <rect x="0" y="0" width="5080" height="5080"/>
  </clipPath>
  <clipPath id="presentation_clip_path_shrink" clipPathUnits="userSpaceOnUse">
   <rect x="5" y="5" width="5070" height="5070"/>
  </clipPath>
 </defs>
 <defs class="TextShapeIndex">
  <g ooo:slide="id1" ooo:id-list="id3 id4"/>
 </defs>
 <defs class="EmbeddedBulletChars">
  <g id="bullet-char-template-57356" transform="scale(0.00048828125,-0.00048828125)">
   <path d="M 580,1141 L 1163,571 580,0 -4,571 580,1141 Z"/>
  </g>
  <g id="bullet-char-template-57354" transform="scale(0.00048828125,-0.00048828125)">
   <path d="M 8,1128 L 1137,1128 1137,0 8,0 8,1128 Z"/>
  </g>
  <g id="bullet-char-template-10146" transform="scale(0.00048828125,-0.00048828125)">
   <path d="M 174,0 L 602,739 174,1481 1456,739 174,0 Z M 1358,739 L 309,1346 659,739 1358,739 Z"/>
  </g>
  <g id="bullet-char-template-10132" transform="scale(0.00048828125,-0.00048828125)">
   <path d="M 2015,739 L 1276,0 717,0 1260,543 174,543 174,936 1260,936 717,1481 1274,1481 2015,739 Z"/>
  </g>
  <g id="bullet-char-template-10007" transform="scale(0.00048828125,-0.00048828125)">
   <path d="M 0,-2 C -7,14 -16,27 -25,37 L 356,567 C 262,823 215,952 215,954 215,979 228,992 255,992 264,992 276,990 289,987 310,991 331,999 354,1012 L 381,999 492,748 772,1049 836,1024 860,1049 C 881,1039 901,1025 922,1006 886,937 835,863 770,784 769,783 710,716 594,584 L 774,223 C 774,196 753,168 711,139 L 727,119 C 717,90 699,76 672,76 641,76 570,178 457,381 L 164,-76 C 142,-110 111,-127 72,-127 30,-127 9,-110 8,-76 1,-67 -2,-52 -2,-32 -2,-23 -1,-13 0,-2 Z"/>
  </g>
  <g id="bullet-char-template-10004" transform="scale(0.00048828125,-0.00048828125)">
   <path d="M 285,-33 C 182,-33 111,30 74,156 52,228 41,333 41,471 41,549 55,616 82,672 116,743 169,778 240,778 293,778 328,747 346,684 L 369,508 C 377,444 397,411 428,410 L 1163,1116 C 1174,1127 1196,1133 1229,1133 1271,1133 1292,1118 1292,1087 L 1292,965 C 1292,929 1282,901 1262,881 L 442,47 C 390,-6 338,-33 285,-33 Z"/>
  </g>
  <g id="bullet-char-template-9679" transform="scale(0.00048828125,-0.00048828125)">
   <path d="M 813,0 C 632,0 489,54 383,161 276,268 223,411 223,592 223,773 276,916 383,1023 489,1130 632,1184 813,1184 992,1184 1136,1130 1245,1023 1353,916 1407,772 1407,592 1407,412 1353,268 1245,161 1136,54 992,0 813,0 Z"/>
  </g>
  <g id="bullet-char-template-8226" transform="scale(0.00048828125,-0.00048828125)">
   <path d="M 346,457 C 273,457 209,483 155,535 101,586 74,649 74,723 74,796 101,859 155,911 209,963 273,989 346,989 419,989 480,963 531,910 582,859 608,796 608,723 608,648 583,586 532,535 482,483 420,457 346,457 Z"/>
  </g>
  <g id="bullet-char-template-8211" transform="scale(0.00048828125,-0.00048828125)">
   <path d="M -4,459 L 1135,459 1135,606 -4,606 -4,459 Z"/>
  </g>
  <g id="bullet-char-template-61548" transform="scale(0.00048828125,-0.00048828125)">
   <path d="M 173,740 C 173,903 231,1043 346,1159 462,1274 601,1332 765,1332 928,1332 1067,1274 1183,1159 1299,1043 1357,903 1357,740 1357,577 1299,437 1183,322 1067,206 928,148 765,148 601,148 462,206 346,322 231,437 173,577 173,740 Z"/>
  </g>
 </defs>
 <g>
  <g id="id2" class="Master_Slide">
   <g id="bg-id2" class="Background"/>
   <g id="bo-id2" class="BackgroundObjects"/>
  </g>
 </g>
 <g class="SlideGroup">
  <g>
   <g id="container-id1">
    <g id="id1" class="Slide" clip-path="url(#presentation_clip_path)">
     <g class="Page">
      <g class="com.sun.star.drawing.CustomShape">
       <g id="id3">
        <rect class="BoundingBox" stroke="none" fill="none" x="0" y="0" width="5081" height="5081"/>
        <path fill="rgb(238,238,238)" fill-opacity="0.502" stroke="none" d="M 2540,5080 L 0,5080 0,0 5080,0 5080,5080 2540,5080 Z"/>
       </g>
      </g>
      <g class="Graphic">
       <g id="id4">
        <rect class="BoundingBox" stroke="none" fill="none" x="635" y="635" width="3811" height="3811"/>
        <defs>
         <clipPath id="clip_path_1" clipPathUnits="userSpaceOnUse">
          <path d="M 635,635 L 4445,635 4445,4445 635,4445 635,635 Z"/>
         </clipPath>
        </defs>
        <g clip-path="url(#clip_path_1)">
         <path fill="rgb(27,27,31)" stroke="none" d="M 3976,1412 L 2772,698 2772,698 C 2771,697 2769,696 2768,696 2699,656 2621,635 2541,635 2462,635 2384,656 2315,696 2314,696 2312,697 2310,698 L 1107,1412 1107,1412 C 1037,1454 978,1514 937,1585 895,1658 873,1740 873,1825 873,1825 873,1825 873,1826 L 873,3254 873,3254 C 873,3255 873,3256 873,3257 873,3341 895,3424 937,3497 978,3567 1036,3626 1105,3668 L 2308,4382 2308,4382 C 2310,4383 2311,4384 2313,4384 2382,4424 2460,4445 2539,4445 2619,4445 2697,4424 2765,4384 2767,4384 2769,4383 2770,4382 L 3974,3668 3974,3668 C 4043,3626 4101,3567 4141,3497 4183,3424 4205,3341 4205,3257 4205,3256 4205,3255 4205,3254 L 4205,1826 4205,1826 C 4205,1825 4205,1823 4205,1822 4205,1738 4183,1655 4141,1582 4101,1513 4044,1454 3976,1412 L 3976,1412 Z M 3044,3643 L 3044,3745 C 3044,3758 3037,3770 3026,3777 L 2965,3812 C 2956,3817 2947,3812 2947,3798 L 2947,3697 2947,3697 C 2920,3711 2890,3718 2860,3718 2843,3718 2826,3715 2809,3711 2801,3706 2799,3696 2802,3687 L 2824,3594 C 2826,3586 2830,3579 2836,3574 L 2836,3574 C 2837,3573 2839,3571 2840,3570 2841,3570 2842,3570 2842,3570 L 2842,3570 C 2844,3569 2845,3569 2847,3569 2848,3569 2850,3569 2852,3570 L 2852,3570 C 2866,3573 2880,3575 2895,3575 2924,3575 2952,3568 2978,3554 L 2978,3554 C 2981,3552 2985,3550 2988,3548 3013,3534 3035,3512 3049,3487 3063,3463 3071,3437 3072,3410 3072,3357 3043,3336 2974,3335 2887,3335 2807,3319 2804,3189 2806,3078 2858,2973 2945,2904 L 2945,2800 C 2945,2788 2952,2776 2963,2768 L 3021,2731 C 3031,2726 3039,2731 3039,2744 L 3039,2848 3039,2848 C 3064,2837 3091,2831 3118,2831 3130,2831 3142,2832 3154,2834 3163,2839 3166,2850 3162,2858 L 3141,2950 C 3139,2957 3136,2964 3131,2969 3129,2971 3127,2972 3125,2974 3122,2975 3119,2974 3116,2974 L 3116,2974 C 3105,2971 3094,2970 3083,2970 3057,2970 3030,2977 3007,2990 3007,2991 3006,2991 3005,2992 L 3005,2992 C 3000,2994 2995,2996 2991,2999 2970,3011 2952,3029 2940,3050 2928,3070 2922,3092 2921,3115 2921,3162 2946,3176 3029,3178 3140,3178 3188,3229 3190,3340 3187,3457 3134,3568 3043,3642 L 3044,3643 Z M 3674,3470 C 3675,3479 3672,3488 3665,3493 L 3362,3678 C 3359,3680 3354,3681 3351,3679 3348,3677 3346,3673 3347,3669 L 3347,3591 C 3348,3582 3353,3575 3361,3571 L 3661,3392 C 3663,3390 3668,3389 3671,3391 3674,3393 3676,3397 3675,3401 L 3675,3470 3674,3470 Z M 3884,1714 L 2746,2417 C 2603,2501 2499,2593 2499,2764 L 2499,4166 C 2499,4269 2541,4333 2604,4354 L 2604,4354 C 2583,4358 2562,4360 2541,4361 L 2541,4361 C 2476,4360 2412,4343 2355,4311 2354,4310 2353,4309 2351,4308 L 1148,3594 C 1028,3522 957,3393 957,3254 L 957,1826 C 956,1687 1028,1558 1148,1486 L 2351,771 C 2468,702 2613,702 2729,771 L 3932,1486 C 4031,1546 4099,1646 4117,1759 4078,1675 3988,1652 3884,1712 L 3884,1712 3884,1714 Z"/>
        </g>
       </g>
      </g>
     </g>
    </g>
   </g>
  </g>
 </g>
</svg>